<svg width="24" height="24" viewBox="0 0 24 24" fill="none" xmlns="http://www.w3.org/2000/svg">
<path d="M6.56607 16.485C6.28166 16.7862 6.29522 17.2609 6.59636 17.5453C6.8975 17.8297 7.37218 17.8161 7.65659 17.515L6.56607 16.485ZM16.5558 7H17.3058C17.3058 6.58579 16.97 6.25 16.5558 6.25V7ZM7.11133 6.25C6.69711 6.25 6.36133 6.58579 6.36133 7C6.36133 7.41421 6.69711 7.75 7.11133 7.75V6.25ZM15.8058 17C15.8058 17.4142 16.1416 17.75 16.5558 17.75C16.97 17.75 17.3058 17.4142 17.3058 17H15.8058ZM7.65659 17.515L17.101 7.51497L16.0105 6.48503L6.56607 16.485L7.65659 17.515ZM7.11133 7.75H16.5558V6.25H7.11133V7.75ZM15.8058 7V17H17.3058V7H15.8058Z" fill="#F41826"/>
</svg>
