<svg width="1628" height="1103" viewBox="0 0 1628 1103" fill="none" xmlns="http://www.w3.org/2000/svg">
<rect x="0.5" y="0.5" width="1627" height="915" rx="79.5" stroke="white"/>
<path d="M20.4375 1085V1037.88L0.9375 975H12.25L26 1021.44H26.25L38.125 975H49.5625L31.75 1037.88V1085H20.4375ZM79.5 1086.25C74.0833 1086.25 69.8542 1085.04 66.8125 1082.62C63.8125 1080.21 61.7083 1076.54 60.5 1071.62C59.2917 1066.71 58.6875 1060.5 58.6875 1053V1005.25C58.6875 998.917 59.2292 993.396 60.3125 988.688C61.3958 983.938 63.4583 980.25 66.5 977.625C69.5417 974.958 74 973.625 79.875 973.625C84.2917 973.625 87.8333 974.375 90.5 975.875C93.1667 977.375 95.1875 979.521 96.5625 982.312C97.9375 985.104 98.8542 988.438 99.3125 992.312C99.8125 996.188 100.062 1000.5 100.062 1005.25V1053C100.062 1060.5 99.4792 1066.71 98.3125 1071.62C97.1458 1076.54 95.0625 1080.21 92.0625 1082.62C89.1042 1085.04 84.9167 1086.25 79.5 1086.25ZM79.5 1076.69C82 1076.69 83.9167 1075.98 85.25 1074.56C86.5833 1073.1 87.5 1070.67 88 1067.25C88.5 1063.79 88.75 1059.06 88.75 1053.06V1004.5C88.75 997.167 88.1875 991.792 87.0625 988.375C85.9792 984.958 83.5833 983.25 79.875 983.25C76 983.25 73.375 984.958 72 988.375C70.6667 991.792 70 997.146 70 1004.44V1053.06C70 1059.06 70.25 1063.79 70.75 1067.25C71.25 1070.67 72.1875 1073.1 73.5625 1074.56C74.9375 1075.98 76.9167 1076.69 79.5 1076.69ZM137.5 1086.31C132.208 1086.31 128.042 1085.25 125 1083.12C122 1080.96 119.875 1077.69 118.625 1073.31C117.375 1068.94 116.75 1063.42 116.75 1056.75V975H128.062V1056.44C128.062 1060.73 128.208 1064.42 128.5 1067.5C128.833 1070.54 129.667 1072.85 131 1074.44C132.333 1076.02 134.5 1076.81 137.5 1076.81C140.583 1076.81 142.771 1076.02 144.062 1074.44C145.354 1072.85 146.125 1070.54 146.375 1067.5C146.667 1064.46 146.812 1060.79 146.812 1056.5V975H158.062V1056.75C158.062 1063.42 157.458 1068.94 156.25 1073.31C155.042 1077.69 152.938 1080.96 149.938 1083.12C146.979 1085.25 142.833 1086.31 137.5 1086.31ZM176.375 1085V975H197.5C203.333 975 207.646 976 210.438 978C213.229 979.958 215.042 982.979 215.875 987.062C216.708 991.146 217.125 996.333 217.125 1002.62C217.125 1009.54 216.417 1015.06 215 1019.19C213.583 1023.31 210.917 1025.94 207 1027.06C209.083 1027.4 210.771 1028.29 212.062 1029.75C213.396 1031.17 214.417 1033.46 215.125 1036.62C215.875 1039.79 216.396 1044.08 216.688 1049.5C216.979 1054.88 217.125 1061.71 217.125 1070C217.125 1070.83 217.125 1071.79 217.125 1072.88C217.125 1073.96 217.146 1075.08 217.188 1076.25C217.229 1077.42 217.292 1078.56 217.375 1079.69C217.458 1080.77 217.562 1081.77 217.688 1082.69C217.854 1083.6 218.042 1084.38 218.25 1085H207C206.792 1084.58 206.625 1083.88 206.5 1082.88C206.375 1081.83 206.25 1080.44 206.125 1078.69C206.042 1076.9 205.979 1074.65 205.938 1071.94C205.896 1069.23 205.875 1065.98 205.875 1062.19C205.875 1058.4 205.875 1053.98 205.875 1048.94C205.875 1044.4 205.708 1040.94 205.375 1038.56C205.083 1036.15 204.271 1034.48 202.938 1033.56C201.604 1032.65 199.417 1032.08 196.375 1031.88L187.688 1031.38V1085H176.375ZM187.625 1023.31H196.562C199.062 1023.31 200.979 1022.85 202.312 1021.94C203.688 1020.98 204.625 1019.02 205.125 1016.06C205.625 1013.1 205.875 1008.6 205.875 1002.56V1001.75C205.875 996.75 205.646 993 205.188 990.5C204.729 987.958 203.854 986.271 202.562 985.438C201.271 984.562 199.354 984.125 196.812 984.125H187.625V1023.31ZM264 1085V975H284.75C289.167 975 292.708 975.75 295.375 977.25C298.042 978.75 300.042 980.896 301.375 983.688C302.75 986.479 303.646 989.833 304.062 993.75C304.521 997.625 304.75 1001.94 304.75 1006.69V1008.12C304.75 1015.62 304.188 1021.88 303.062 1026.88C301.979 1031.88 299.979 1035.62 297.062 1038.12C294.146 1040.62 289.958 1041.88 284.5 1041.88H275.312V1085H264ZM275.312 1032.38H284.062C286.646 1032.38 288.604 1031.62 289.938 1030.12C291.271 1028.62 292.188 1026.12 292.688 1022.62C293.188 1019.08 293.438 1014.27 293.438 1008.19V1006.06C293.479 998.562 292.938 993.042 291.812 989.5C290.688 985.917 288.229 984.125 284.438 984.125H275.312V1032.38ZM318.625 1085V975H339.75C345.583 975 349.896 976 352.688 978C355.479 979.958 357.292 982.979 358.125 987.062C358.958 991.146 359.375 996.333 359.375 1002.62C359.375 1009.54 358.667 1015.06 357.25 1019.19C355.833 1023.31 353.167 1025.94 349.25 1027.06C351.333 1027.4 353.021 1028.29 354.312 1029.75C355.646 1031.17 356.667 1033.46 357.375 1036.62C358.125 1039.79 358.646 1044.08 358.938 1049.5C359.229 1054.88 359.375 1061.71 359.375 1070C359.375 1070.83 359.375 1071.79 359.375 1072.88C359.375 1073.96 359.396 1075.08 359.438 1076.25C359.479 1077.42 359.542 1078.56 359.625 1079.69C359.708 1080.77 359.812 1081.77 359.938 1082.69C360.104 1083.6 360.292 1084.38 360.5 1085H349.25C349.042 1084.58 348.875 1083.88 348.75 1082.88C348.625 1081.83 348.5 1080.44 348.375 1078.69C348.292 1076.9 348.229 1074.65 348.188 1071.94C348.146 1069.23 348.125 1065.98 348.125 1062.19C348.125 1058.4 348.125 1053.98 348.125 1048.94C348.125 1044.4 347.958 1040.94 347.625 1038.56C347.333 1036.15 346.521 1034.48 345.188 1033.56C343.854 1032.65 341.667 1032.08 338.625 1031.88L329.938 1031.38V1085H318.625ZM329.875 1023.31H338.812C341.312 1023.31 343.229 1022.85 344.562 1021.94C345.938 1020.98 346.875 1019.02 347.375 1016.06C347.875 1013.1 348.125 1008.6 348.125 1002.56V1001.75C348.125 996.75 347.896 993 347.438 990.5C346.979 987.958 346.104 986.271 344.812 985.438C343.521 984.562 341.604 984.125 339.062 984.125H329.875V1023.31ZM395.5 1086.25C390.083 1086.25 385.854 1085.04 382.812 1082.62C379.812 1080.21 377.708 1076.54 376.5 1071.62C375.292 1066.71 374.688 1060.5 374.688 1053V1005.25C374.688 998.917 375.229 993.396 376.312 988.688C377.396 983.938 379.458 980.25 382.5 977.625C385.542 974.958 390 973.625 395.875 973.625C400.292 973.625 403.833 974.375 406.5 975.875C409.167 977.375 411.188 979.521 412.562 982.312C413.938 985.104 414.854 988.438 415.312 992.312C415.812 996.188 416.062 1000.5 416.062 1005.25V1053C416.062 1060.5 415.479 1066.71 414.312 1071.62C413.146 1076.54 411.062 1080.21 408.062 1082.62C405.104 1085.04 400.917 1086.25 395.5 1086.25ZM395.5 1076.69C398 1076.69 399.917 1075.98 401.25 1074.56C402.583 1073.1 403.5 1070.67 404 1067.25C404.5 1063.79 404.75 1059.06 404.75 1053.06V1004.5C404.75 997.167 404.188 991.792 403.062 988.375C401.979 984.958 399.583 983.25 395.875 983.25C392 983.25 389.375 984.958 388 988.375C386.667 991.792 386 997.146 386 1004.44V1053.06C386 1059.06 386.25 1063.79 386.75 1067.25C387.25 1070.67 388.188 1073.1 389.562 1074.56C390.938 1075.98 392.917 1076.69 395.5 1076.69ZM448.438 1086.31C441.562 1086.31 436.667 1084.19 433.75 1079.94C430.875 1075.69 429.438 1069.27 429.438 1060.69V1048.5H440.625V1059.88C440.625 1062.92 440.729 1065.73 440.938 1068.31C441.146 1070.85 441.771 1072.92 442.812 1074.5C443.854 1076.04 445.604 1076.81 448.062 1076.81C450.562 1076.81 452.312 1076.06 453.312 1074.56C454.354 1073.02 454.979 1070.9 455.188 1068.19C455.396 1065.48 455.5 1062.38 455.5 1058.88V975H466.812V1058.56C466.812 1067.85 465.333 1074.81 462.375 1079.44C459.458 1084.02 454.812 1086.31 448.438 1086.31ZM486 1085V975H517.188V984.188H497.312V1024.19H516.062V1033.56H497.312V1075.75H517.188V1085H486ZM551.25 1086.31C545.917 1086.31 541.729 1084.98 538.688 1082.31C535.688 1079.65 533.583 1075.75 532.375 1070.62C531.167 1065.46 530.562 1059.15 530.562 1051.69V1006.75C530.562 1002 530.833 997.625 531.375 993.625C531.958 989.583 532.979 986.083 534.438 983.125C535.938 980.125 538.062 977.812 540.812 976.188C543.604 974.521 547.229 973.688 551.688 973.688C556.062 973.688 559.562 974.5 562.188 976.125C564.812 977.75 566.792 980.021 568.125 982.938C569.458 985.854 570.333 989.312 570.75 993.312C571.208 997.271 571.438 1001.62 571.438 1006.38V1017.31H560.188V1005.81C560.188 998.396 559.688 992.792 558.688 989C557.688 985.208 555.333 983.312 551.625 983.312C547.75 983.312 545.146 985.229 543.812 989.062C542.521 992.854 541.875 998.417 541.875 1005.75V1051.81C541.875 1057.77 542.104 1062.6 542.562 1066.31C543.062 1069.98 543.979 1072.65 545.312 1074.31C546.688 1075.98 548.667 1076.81 551.25 1076.81C555 1076.81 557.417 1074.88 558.5 1071C559.625 1067.12 560.188 1060.73 560.188 1051.81V1041.12H571.5V1051.69C571.5 1059.19 570.938 1065.52 569.812 1070.69C568.688 1075.81 566.667 1079.71 563.75 1082.38C560.833 1085 556.667 1086.31 551.25 1086.31ZM591.812 1085V984.188H580V975H613.938V984.188H603.062V1085H591.812Z" fill="white"/>
<path d="M798.5 444.5L799 281H824V444.5H992V470.5H824V635.5H799V470.5H635V444.5H798.5Z" fill="white"/>
</svg>
