<svg width="193" height="49" viewBox="0 0 193 49" fill="none" xmlns="http://www.w3.org/2000/svg">
<rect x="0.5" y="0.5" width="192" height="48" rx="19.5" fill="#0C0C0C" stroke="white"/>
<path d="M84.2344 38.3281C82.901 38.3281 81.8385 38.0052 81.0469 37.3594C80.2552 36.7031 79.6875 35.7448 79.3438 34.4844C79 33.224 78.8281 31.6927 78.8281 29.8906V18.4375C78.8281 17.2292 78.9062 16.125 79.0625 15.125C79.2188 14.1146 79.4948 13.2448 79.8906 12.5156C80.2969 11.776 80.8594 11.2083 81.5781 10.8125C82.2969 10.4062 83.2188 10.2031 84.3438 10.2031C85.4167 10.2031 86.2917 10.3958 86.9688 10.7812C87.6458 11.1562 88.1719 11.6979 88.5469 12.4062C88.9219 13.1042 89.1771 13.9375 89.3125 14.9062C89.4583 15.8646 89.5312 16.9271 89.5312 18.0938V21.1406H86.3594V18.0781C86.3594 16.3698 86.2344 15.0938 85.9844 14.25C85.7448 13.3958 85.1979 12.9688 84.3438 12.9688C83.4375 12.9688 82.8281 13.4062 82.5156 14.2812C82.2135 15.1458 82.0625 16.4062 82.0625 18.0625V29.9688C82.0625 31.3021 82.1198 32.3854 82.2344 33.2188C82.349 34.0417 82.5625 34.6406 82.875 35.0156C83.1979 35.3906 83.6562 35.5781 84.25 35.5781C85.1146 35.5781 85.6823 35.1406 85.9531 34.2656C86.224 33.3906 86.3594 31.9531 86.3594 29.9531V26.9062H89.5625V29.9219C89.5625 31.7552 89.401 33.2969 89.0781 34.5469C88.7656 35.7969 88.224 36.7396 87.4531 37.375C86.6823 38.0104 85.6094 38.3281 84.2344 38.3281ZM97.9219 38.3125C96.8073 38.3125 95.901 38.1146 95.2031 37.7188C94.5052 37.3125 93.9688 36.7396 93.5938 36C93.2188 35.2604 92.9583 34.3906 92.8125 33.3906C92.6771 32.3802 92.6094 31.2656 92.6094 30.0469V27.375H95.75V30.1719C95.75 32.099 95.8854 33.4792 96.1562 34.3125C96.4375 35.1354 97.0365 35.5469 97.9531 35.5469C98.5885 35.5469 99.0521 35.401 99.3438 35.1094C99.6458 34.8073 99.8385 34.3281 99.9219 33.6719C100.005 33.0156 100.047 32.151 100.047 31.0781C100.047 29.849 99.8281 28.7917 99.3906 27.9062C98.9635 27.0208 98.3438 26.1719 97.5312 25.3594L95.7344 23.5625C95.2135 23.0312 94.7031 22.4531 94.2031 21.8281C93.7031 21.1927 93.2865 20.474 92.9531 19.6719C92.6302 18.8698 92.4688 17.9531 92.4688 16.9219C92.4688 15.5365 92.6146 14.3385 92.9062 13.3281C93.1979 12.3177 93.7292 11.5365 94.5 10.9844C95.2708 10.4323 96.3646 10.1562 97.7812 10.1562C98.8958 10.1562 99.7865 10.349 100.453 10.7344C101.13 11.1198 101.635 11.6719 101.969 12.3906C102.312 13.099 102.536 13.9427 102.641 14.9219C102.755 15.901 102.812 16.9844 102.812 18.1719V19.7969H99.7188V17.9531C99.7188 16.8385 99.6719 15.9115 99.5781 15.1719C99.4948 14.4219 99.3177 13.8594 99.0469 13.4844C98.776 13.1094 98.3542 12.9219 97.7812 12.9219C97.2604 12.9219 96.8333 13.0521 96.5 13.3125C96.1771 13.5625 95.9427 13.9531 95.7969 14.4844C95.651 15.0156 95.5781 15.6979 95.5781 16.5312C95.5781 17.2604 95.6667 17.8646 95.8438 18.3438C96.0208 18.8125 96.2865 19.25 96.6406 19.6562C97.0052 20.0625 97.4479 20.5417 97.9688 21.0938L99.8438 23.0781C100.833 24.1094 101.641 25.2656 102.266 26.5469C102.901 27.8177 103.219 29.2969 103.219 30.9844C103.219 32.5052 103.068 33.8125 102.766 34.9062C102.474 36 101.948 36.8438 101.188 37.4375C100.427 38.0208 99.3385 38.3125 97.9219 38.3125ZM110.859 38.3125C109.745 38.3125 108.839 38.1146 108.141 37.7188C107.443 37.3125 106.906 36.7396 106.531 36C106.156 35.2604 105.896 34.3906 105.75 33.3906C105.615 32.3802 105.547 31.2656 105.547 30.0469V27.375H108.688V30.1719C108.688 32.099 108.823 33.4792 109.094 34.3125C109.375 35.1354 109.974 35.5469 110.891 35.5469C111.526 35.5469 111.99 35.401 112.281 35.1094C112.583 34.8073 112.776 34.3281 112.859 33.6719C112.943 33.0156 112.984 32.151 112.984 31.0781C112.984 29.849 112.766 28.7917 112.328 27.9062C111.901 27.0208 111.281 26.1719 110.469 25.3594L108.672 23.5625C108.151 23.0312 107.641 22.4531 107.141 21.8281C106.641 21.1927 106.224 20.474 105.891 19.6719C105.568 18.8698 105.406 17.9531 105.406 16.9219C105.406 15.5365 105.552 14.3385 105.844 13.3281C106.135 12.3177 106.667 11.5365 107.438 10.9844C108.208 10.4323 109.302 10.1562 110.719 10.1562C111.833 10.1562 112.724 10.349 113.391 10.7344C114.068 11.1198 114.573 11.6719 114.906 12.3906C115.25 13.099 115.474 13.9427 115.578 14.9219C115.693 15.901 115.75 16.9844 115.75 18.1719V19.7969H112.656V17.9531C112.656 16.8385 112.609 15.9115 112.516 15.1719C112.432 14.4219 112.255 13.8594 111.984 13.4844C111.714 13.1094 111.292 12.9219 110.719 12.9219C110.198 12.9219 109.771 13.0521 109.438 13.3125C109.115 13.5625 108.88 13.9531 108.734 14.4844C108.589 15.0156 108.516 15.6979 108.516 16.5312C108.516 17.2604 108.604 17.8646 108.781 18.3438C108.958 18.8125 109.224 19.25 109.578 19.6562C109.943 20.0625 110.385 20.5417 110.906 21.0938L112.781 23.0781C113.771 24.1094 114.578 25.2656 115.203 26.5469C115.839 27.8177 116.156 29.2969 116.156 30.9844C116.156 32.5052 116.005 33.8125 115.703 34.9062C115.411 36 114.885 36.8438 114.125 37.4375C113.365 38.0208 112.276 38.3125 110.859 38.3125Z" fill="white"/>
</svg>
