<svg width="193" height="49" viewBox="0 0 193 49" fill="none" xmlns="http://www.w3.org/2000/svg">
<rect x="0.5" y="0.5" width="192" height="48" rx="19.5" fill="#0C0C0C" stroke="white"/>
<path d="M72.4375 38V10.5H77.6094C79.0469 10.5 80.1667 10.8021 80.9688 11.4062C81.7708 12 82.3333 12.8542 82.6562 13.9688C82.9792 15.0833 83.1406 16.4167 83.1406 17.9688L83.1562 30.0469C83.1562 31.901 82.9688 33.4167 82.5938 34.5938C82.2292 35.7604 81.6302 36.6198 80.7969 37.1719C79.974 37.724 78.875 38 77.5 38H72.4375ZM75.6562 35.3906H77.3125C77.8958 35.3906 78.3802 35.2656 78.7656 35.0156C79.151 34.7552 79.4375 34.276 79.625 33.5781C79.8229 32.8802 79.9219 31.8698 79.9219 30.5469V17.8906C79.9219 16.1615 79.7188 14.9271 79.3125 14.1875C78.9062 13.4375 78.2396 13.0625 77.3125 13.0625H75.6562V35.3906ZM85.875 38L90.0469 10.5H93.9375L98.4844 38H95.4375L94.6562 32.75H89.6719L88.9531 38H85.875ZM90.0312 30.125H94.25L92.0781 15.5938H92.0312L90.0312 30.125ZM101.531 38V10.5H107.297C108.755 10.5 109.833 10.7604 110.531 11.2812C111.229 11.7917 111.682 12.5677 111.891 13.6094C112.109 14.6406 112.219 15.9427 112.219 17.5156C112.219 19.2135 112.047 20.5625 111.703 21.5625C111.359 22.5625 110.693 23.2083 109.703 23.5C110.203 23.5833 110.615 23.7969 110.938 24.1406C111.271 24.4844 111.531 25.0208 111.719 25.75C111.906 26.4792 112.036 27.4583 112.109 28.6875C112.193 29.9062 112.234 31.4427 112.234 33.2969C112.234 33.474 112.234 33.7292 112.234 34.0625C112.234 34.3958 112.24 34.7604 112.25 35.1562C112.26 35.5521 112.271 35.9427 112.281 36.3281C112.302 36.7135 112.328 37.0573 112.359 37.3594C112.391 37.651 112.432 37.8646 112.484 38H109.266C109.224 37.9062 109.188 37.6979 109.156 37.375C109.125 37.0521 109.099 36.625 109.078 36.0938C109.057 35.5625 109.042 34.9323 109.031 34.2031C109.021 33.4635 109.016 32.6406 109.016 31.7344C109.016 30.8177 109.016 29.8177 109.016 28.7344C109.016 27.6927 108.969 26.901 108.875 26.3594C108.792 25.8073 108.583 25.4271 108.25 25.2188C107.927 25 107.406 24.8698 106.688 24.8281L104.766 24.7188V38H101.531ZM104.766 22.3438H106.828C107.422 22.3438 107.875 22.2292 108.188 22C108.51 21.7604 108.729 21.2917 108.844 20.5938C108.958 19.8854 109.016 18.8281 109.016 17.4219V17.2344C109.016 16.0677 108.958 15.1875 108.844 14.5938C108.74 13.9896 108.531 13.5833 108.219 13.375C107.906 13.1667 107.432 13.0625 106.797 13.0625H104.766V22.3438ZM117.375 38V13.1875H114.344V10.5H123.422V13.1875H120.594V38H117.375Z" fill="white"/>
</svg>
