<svg width="193" height="49" viewBox="0 0 193 49" fill="none" xmlns="http://www.w3.org/2000/svg">
<rect x="0.5" y="0.5" width="192" height="48" rx="19.5" fill="#0C0C0C" stroke="white"/>
<path d="M57.4219 38V10.5H65.7031V13.2031H60.6406V21.8906H65.3906V24.625H60.6406V38H57.4219ZM69.1094 38V10.5H72.3438V35.3281H77.4219V38H69.1094ZM85.2188 38.3281C83.8646 38.3281 82.7865 38.0625 81.9844 37.5312C81.1927 36.9896 80.625 36.1719 80.2812 35.0781C79.9375 33.9844 79.7656 32.6042 79.7656 30.9375V10.5H83V30.8594C83 31.849 83.0365 32.6979 83.1094 33.4062C83.1823 34.1146 83.375 34.6562 83.6875 35.0312C84 35.4062 84.5104 35.5938 85.2188 35.5938C85.9375 35.5938 86.4479 35.4062 86.75 35.0312C87.0521 34.6562 87.2344 34.1198 87.2969 33.4219C87.3698 32.7135 87.4062 31.8646 87.4062 30.875V10.5H90.625V30.9375C90.625 32.6042 90.4583 33.9844 90.125 35.0781C89.7917 36.1719 89.2292 36.9896 88.4375 37.5312C87.6562 38.0625 86.5833 38.3281 85.2188 38.3281ZM96.0469 38V13.1875H93.0156V10.5H102.094V13.1875H99.2656V38H96.0469ZM105.891 38V13.1875H102.859V10.5H111.938V13.1875H109.109V38H105.891ZM114.578 38V10.5H122.797V13.1875H117.812V22.5938H122.531V25.2812H117.812V35.3125H122.859V38H114.578ZM126.391 38V10.5H132.156C133.615 10.5 134.693 10.7604 135.391 11.2812C136.089 11.7917 136.542 12.5677 136.75 13.6094C136.969 14.6406 137.078 15.9427 137.078 17.5156C137.078 19.2135 136.906 20.5625 136.562 21.5625C136.219 22.5625 135.552 23.2083 134.562 23.5C135.062 23.5833 135.474 23.7969 135.797 24.1406C136.13 24.4844 136.391 25.0208 136.578 25.75C136.766 26.4792 136.896 27.4583 136.969 28.6875C137.052 29.9062 137.094 31.4427 137.094 33.2969C137.094 33.474 137.094 33.7292 137.094 34.0625C137.094 34.3958 137.099 34.7604 137.109 35.1562C137.12 35.5521 137.13 35.9427 137.141 36.3281C137.161 36.7135 137.188 37.0573 137.219 37.3594C137.25 37.651 137.292 37.8646 137.344 38H134.125C134.083 37.9062 134.047 37.6979 134.016 37.375C133.984 37.0521 133.958 36.625 133.938 36.0938C133.917 35.5625 133.901 34.9323 133.891 34.2031C133.88 33.4635 133.875 32.6406 133.875 31.7344C133.875 30.8177 133.875 29.8177 133.875 28.7344C133.875 27.6927 133.828 26.901 133.734 26.3594C133.651 25.8073 133.443 25.4271 133.109 25.2188C132.786 25 132.266 24.8698 131.547 24.8281L129.625 24.7188V38H126.391ZM129.625 22.3438H131.688C132.281 22.3438 132.734 22.2292 133.047 22C133.37 21.7604 133.589 21.2917 133.703 20.5938C133.818 19.8854 133.875 18.8281 133.875 17.4219V17.2344C133.875 16.0677 133.818 15.1875 133.703 14.5938C133.599 13.9896 133.391 13.5833 133.078 13.375C132.766 13.1667 132.292 13.0625 131.656 13.0625H129.625V22.3438Z" fill="white"/>
</svg>
