<svg width="193" height="49" viewBox="0 0 193 49" fill="none" xmlns="http://www.w3.org/2000/svg">
<rect x="0.5" y="0.5" width="192" height="48" rx="19.5" fill="#0C0C0C" stroke="white"/>
<path d="M71.0781 38V10.5H74.3125V22.2656H78.7188V10.5H81.9531V38H78.7188V24.9062H74.3125V38H71.0781ZM87.6094 38V13.1875H84.5781V10.5H93.6562V13.1875H90.8281V38H87.6094ZM96.2969 38V10.5H100.016L104.266 32.4844L108.312 10.5H112.047V38H109.281V27.5938L109.547 17.3125L105.406 38H103.094L98.7812 17.3125L99.0469 27.5938V38H96.2969ZM116.547 38V10.5H119.781V35.3281H124.859V38H116.547Z" fill="white"/>
</svg>
