<svg width="193" height="49" viewBox="0 0 193 49" fill="none" xmlns="http://www.w3.org/2000/svg">
<rect x="0.5" y="0.5" width="192" height="48" rx="19.5" fill="#0C0C0C" stroke="white"/>
<path d="M76.5938 38.3281C74.8542 38.3281 73.5781 37.7969 72.7656 36.7344C71.9635 35.6615 71.5625 34.0573 71.5625 31.9219V28.3281H74.7188V31.7188C74.7188 32.4167 74.7448 33.0573 74.7969 33.6406C74.8594 34.224 75.0156 34.6927 75.2656 35.0469C75.5156 35.401 75.9271 35.5781 76.5 35.5781C77.0729 35.5781 77.4792 35.4062 77.7188 35.0625C77.9688 34.7188 78.1198 34.2396 78.1719 33.625C78.2344 33 78.2656 32.2812 78.2656 31.4688V10.5H81.5V31.3438C81.5 33.6562 81.0938 35.401 80.2812 36.5781C79.4688 37.7448 78.2396 38.3281 76.5938 38.3281ZM84 38L88.1719 10.5H92.0625L96.6094 38H93.5625L92.7812 32.75H87.7969L87.0781 38H84ZM88.1562 30.125H92.375L90.2031 15.5938H90.1562L88.1562 30.125ZM101.844 38L97.2656 10.5H100.344L102.172 22.1406L103.734 32.375H103.797L105.156 22.1406L106.734 10.5H109.781L105.609 38H101.844ZM110.438 38L114.609 10.5H118.5L123.047 38H120L119.219 32.75H114.234L113.516 38H110.438ZM114.594 30.125H118.812L116.641 15.5938H116.594L114.594 30.125Z" fill="white"/>
</svg>
