<svg width="193" height="49" viewBox="0 0 193 49" fill="none" xmlns="http://www.w3.org/2000/svg">
<rect x="0.5" y="0.5" width="192" height="48" rx="19.5" fill="#0C0C0C" stroke="white"/>
<path d="M90.125 38.3281C88.3854 38.3281 87.1094 37.7969 86.2969 36.7344C85.4948 35.6615 85.0938 34.0573 85.0938 31.9219V28.3281H88.25V31.7188C88.25 32.4167 88.276 33.0573 88.3281 33.6406C88.3906 34.224 88.5469 34.6927 88.7969 35.0469C89.0469 35.401 89.4583 35.5781 90.0312 35.5781C90.6042 35.5781 91.0104 35.4062 91.25 35.0625C91.5 34.7188 91.651 34.2396 91.7031 33.625C91.7656 33 91.7969 32.2812 91.7969 31.4688V10.5H95.0312V31.3438C95.0312 33.6562 94.625 35.401 93.8125 36.5781C93 37.7448 91.7708 38.3281 90.125 38.3281ZM104.062 38.3125C102.948 38.3125 102.042 38.1146 101.344 37.7188C100.646 37.3125 100.109 36.7396 99.7344 36C99.3594 35.2604 99.099 34.3906 98.9531 33.3906C98.8177 32.3802 98.75 31.2656 98.75 30.0469V27.375H101.891V30.1719C101.891 32.099 102.026 33.4792 102.297 34.3125C102.578 35.1354 103.177 35.5469 104.094 35.5469C104.729 35.5469 105.193 35.401 105.484 35.1094C105.786 34.8073 105.979 34.3281 106.062 33.6719C106.146 33.0156 106.188 32.151 106.188 31.0781C106.188 29.849 105.969 28.7917 105.531 27.9062C105.104 27.0208 104.484 26.1719 103.672 25.3594L101.875 23.5625C101.354 23.0312 100.844 22.4531 100.344 21.8281C99.8438 21.1927 99.4271 20.474 99.0938 19.6719C98.7708 18.8698 98.6094 17.9531 98.6094 16.9219C98.6094 15.5365 98.7552 14.3385 99.0469 13.3281C99.3385 12.3177 99.8698 11.5365 100.641 10.9844C101.411 10.4323 102.505 10.1562 103.922 10.1562C105.036 10.1562 105.927 10.349 106.594 10.7344C107.271 11.1198 107.776 11.6719 108.109 12.3906C108.453 13.099 108.677 13.9427 108.781 14.9219C108.896 15.901 108.953 16.9844 108.953 18.1719V19.7969H105.859V17.9531C105.859 16.8385 105.812 15.9115 105.719 15.1719C105.635 14.4219 105.458 13.8594 105.188 13.4844C104.917 13.1094 104.495 12.9219 103.922 12.9219C103.401 12.9219 102.974 13.0521 102.641 13.3125C102.318 13.5625 102.083 13.9531 101.938 14.4844C101.792 15.0156 101.719 15.6979 101.719 16.5312C101.719 17.2604 101.807 17.8646 101.984 18.3438C102.161 18.8125 102.427 19.25 102.781 19.6562C103.146 20.0625 103.589 20.5417 104.109 21.0938L105.984 23.0781C106.974 24.1094 107.781 25.2656 108.406 26.5469C109.042 27.8177 109.359 29.2969 109.359 30.9844C109.359 32.5052 109.208 33.8125 108.906 34.9062C108.615 36 108.089 36.8438 107.328 37.4375C106.568 38.0208 105.479 38.3125 104.062 38.3125Z" fill="white"/>
</svg>
