<svg width="193" height="49" viewBox="0 0 193 49" fill="none" xmlns="http://www.w3.org/2000/svg">
<rect x="0.5" y="0.5" width="192" height="48" rx="19.5" fill="#0C0C0C" stroke="white"/>
<path d="M33.9043 37V12.9375H37.1582L40.877 32.1738L44.418 12.9375H47.6855V37H45.2656V27.8945L45.498 18.8984L41.875 37H39.8516L36.0781 18.8984L36.3105 27.8945V37H33.9043ZM50.3379 37L53.9883 12.9375H57.3926L61.3711 37H58.7051L58.0215 32.4062H53.6602L53.0312 37H50.3379ZM53.9746 30.1094H57.666L55.7656 17.3945H55.7246L53.9746 30.1094ZM64.0371 37V12.9375H66.1699L71.748 29.3164L71.4609 22.3574V12.9375H73.9629V37H71.8848L66.4844 20.4844L66.6484 26.5547V37H64.0371ZM76.6152 37L80.2656 12.9375H83.6699L87.6484 37H84.9824L84.2988 32.4062H79.9375L79.3086 37H76.6152ZM80.252 30.1094H83.9434L82.043 17.3945H82.002L80.252 30.1094ZM94.375 37.2324C92.9805 37.2324 91.9095 36.6582 91.1621 35.5098C90.4147 34.3613 90.041 32.4701 90.041 29.8359V19.7461C90.041 18.6888 90.1139 17.7318 90.2598 16.875C90.4147 16.0091 90.6745 15.2617 91.0391 14.6328C91.4036 14.0039 91.9004 13.5208 92.5293 13.1836C93.1673 12.8464 93.9694 12.6777 94.9355 12.6777C95.9382 12.6777 96.7357 12.8509 97.3281 13.1973C97.9297 13.5345 98.3854 14.0176 98.6953 14.6465C99.0052 15.2754 99.2103 16.0273 99.3105 16.9023C99.4108 17.7773 99.4609 18.7435 99.4609 19.8008V21.6602H96.7266V18.5293C96.7266 17.3626 96.6081 16.5013 96.3711 15.9453C96.1432 15.3802 95.6647 15.0977 94.9355 15.0977C94.1608 15.0977 93.623 15.4303 93.3223 16.0957C93.0215 16.7611 92.8711 17.9368 92.8711 19.623V29.7402C92.8711 31.5814 92.9941 32.8984 93.2402 33.6914C93.4954 34.4844 94.0332 34.8809 94.8535 34.8809C95.6374 34.8809 96.166 34.4844 96.4395 33.6914C96.722 32.8893 96.8633 31.554 96.8633 29.6855V26.5547H94.9082V24.3672H99.4609V37H97.9707L97.5879 35.1406C97.3327 35.8151 96.9271 36.3346 96.3711 36.6992C95.8242 37.0547 95.1589 37.2324 94.375 37.2324ZM103.166 37V12.9375H110.357V15.2891H105.996V23.5195H110.125V25.8711H105.996V34.6484H110.412V37H103.166ZM113.502 37V12.9375H116.756L120.475 32.1738L124.016 12.9375H127.283V37H124.863V27.8945L125.096 18.8984L121.473 37H119.449L115.676 18.8984L115.908 27.8945V37H113.502ZM131.221 37V12.9375H138.412V15.2891H134.051V23.5195H138.18V25.8711H134.051V34.6484H138.467V37H131.221ZM141.557 37V12.9375H143.689L149.268 29.3164L148.98 22.3574V12.9375H151.482V37H149.404L144.004 20.4844L144.168 26.5547V37H141.557ZM156.432 37V15.2891H153.779V12.9375H161.723V15.2891H159.248V37H156.432Z" fill="white"/>
</svg>
