<svg width="193" height="49" viewBox="0 0 193 49" fill="none" xmlns="http://www.w3.org/2000/svg">
<rect x="0.5" y="0.5" width="192" height="48" rx="19.5" fill="#0C0C0C" stroke="white"/>
<path d="M43.2832 37V12.9375H48.123C49.0801 12.9375 49.8548 13.097 50.4473 13.416C51.0488 13.735 51.5091 14.1953 51.8281 14.7969C52.1471 15.3984 52.3613 16.123 52.4707 16.9707C52.5892 17.8184 52.6484 18.7708 52.6484 19.8281V20.1973C52.6484 21.8105 52.5208 23.1641 52.2656 24.2578C52.0195 25.3516 51.5684 26.1764 50.9121 26.7324C50.265 27.2793 49.3353 27.5527 48.123 27.5527H46.1133V37H43.2832ZM46.1133 25.2012H47.8359C48.3919 25.2012 48.8112 25.0462 49.0938 24.7363C49.3763 24.4173 49.5677 23.8932 49.668 23.1641C49.7773 22.4349 49.832 21.446 49.832 20.1973V19.7324C49.832 18.1829 49.7135 17.0391 49.4766 16.3008C49.2396 15.5534 48.7155 15.1797 47.9043 15.1797H46.1133V25.2012ZM53.4004 37L57.0508 12.9375H60.4551L64.4336 37H61.7676L61.084 32.4062H56.7227L56.0938 37H53.4004ZM57.0371 30.1094H60.7285L58.8281 17.3945H58.7871L57.0371 30.1094ZM70.9824 37.2734C70.0072 37.2734 69.2142 37.1003 68.6035 36.7539C67.9928 36.3984 67.5234 35.8971 67.1953 35.25C66.8672 34.6029 66.6393 33.8418 66.5117 32.9668C66.3932 32.0827 66.334 31.1074 66.334 30.041V27.7031H69.082V30.1504C69.082 31.8366 69.2005 33.0443 69.4375 33.7734C69.6836 34.4935 70.2077 34.8535 71.0098 34.8535C71.5658 34.8535 71.9714 34.7259 72.2266 34.4707C72.4909 34.2064 72.6595 33.7871 72.7324 33.2129C72.8053 32.6387 72.8418 31.8822 72.8418 30.9434C72.8418 29.8678 72.6504 28.9427 72.2676 28.168C71.8939 27.3932 71.3516 26.6504 70.6406 25.9395L69.0684 24.3672C68.6126 23.9023 68.166 23.3965 67.7285 22.8496C67.291 22.2936 66.9264 21.6647 66.6348 20.9629C66.3522 20.2611 66.2109 19.459 66.2109 18.5566C66.2109 17.3444 66.3385 16.2962 66.5938 15.4121C66.849 14.528 67.3138 13.8444 67.9883 13.3613C68.6628 12.8783 69.6198 12.6367 70.8594 12.6367C71.8346 12.6367 72.6139 12.8053 73.1973 13.1426C73.7897 13.4798 74.2318 13.9629 74.5234 14.5918C74.8242 15.2116 75.0202 15.9499 75.1113 16.8066C75.2116 17.6634 75.2617 18.6113 75.2617 19.6504V21.0723H72.5547V19.459C72.5547 18.4837 72.5137 17.6725 72.4316 17.0254C72.3587 16.3691 72.2038 15.877 71.9668 15.5488C71.7298 15.2207 71.3607 15.0566 70.8594 15.0566C70.4036 15.0566 70.0299 15.1706 69.7383 15.3984C69.4557 15.6172 69.2507 15.959 69.123 16.4238C68.9954 16.8887 68.9316 17.4857 68.9316 18.2148C68.9316 18.8529 69.0091 19.3815 69.1641 19.8008C69.319 20.2109 69.5514 20.5938 69.8613 20.9492C70.1803 21.3047 70.5677 21.724 71.0234 22.207L72.6641 23.9434C73.5299 24.8457 74.2363 25.8574 74.7832 26.9785C75.3392 28.0905 75.6172 29.3848 75.6172 30.8613C75.6172 32.1921 75.485 33.3359 75.2207 34.293C74.9655 35.25 74.5052 35.9883 73.8398 36.5078C73.1745 37.0182 72.222 37.2734 70.9824 37.2734ZM82.3027 37.2734C81.3275 37.2734 80.5345 37.1003 79.9238 36.7539C79.3132 36.3984 78.8438 35.8971 78.5156 35.25C78.1875 34.6029 77.9596 33.8418 77.832 32.9668C77.7135 32.0827 77.6543 31.1074 77.6543 30.041V27.7031H80.4023V30.1504C80.4023 31.8366 80.5208 33.0443 80.7578 33.7734C81.0039 34.4935 81.528 34.8535 82.3301 34.8535C82.8861 34.8535 83.2917 34.7259 83.5469 34.4707C83.8112 34.2064 83.9798 33.7871 84.0527 33.2129C84.1257 32.6387 84.1621 31.8822 84.1621 30.9434C84.1621 29.8678 83.9707 28.9427 83.5879 28.168C83.2142 27.3932 82.6719 26.6504 81.9609 25.9395L80.3887 24.3672C79.9329 23.9023 79.4863 23.3965 79.0488 22.8496C78.6113 22.2936 78.2467 21.6647 77.9551 20.9629C77.6725 20.2611 77.5312 19.459 77.5312 18.5566C77.5312 17.3444 77.6589 16.2962 77.9141 15.4121C78.1693 14.528 78.6341 13.8444 79.3086 13.3613C79.9831 12.8783 80.9401 12.6367 82.1797 12.6367C83.1549 12.6367 83.9342 12.8053 84.5176 13.1426C85.11 13.4798 85.5521 13.9629 85.8438 14.5918C86.1445 15.2116 86.3405 15.9499 86.4316 16.8066C86.5319 17.6634 86.582 18.6113 86.582 19.6504V21.0723H83.875V19.459C83.875 18.4837 83.834 17.6725 83.752 17.0254C83.679 16.3691 83.5241 15.877 83.2871 15.5488C83.0501 15.2207 82.681 15.0566 82.1797 15.0566C81.724 15.0566 81.3503 15.1706 81.0586 15.3984C80.776 15.6172 80.571 15.959 80.4434 16.4238C80.3158 16.8887 80.252 17.4857 80.252 18.2148C80.252 18.8529 80.3294 19.3815 80.4844 19.8008C80.6393 20.2109 80.8717 20.5938 81.1816 20.9492C81.5007 21.3047 81.888 21.724 82.3438 22.207L83.9844 23.9434C84.8503 24.8457 85.5566 25.8574 86.1035 26.9785C86.6595 28.0905 86.9375 29.3848 86.9375 30.8613C86.9375 32.1921 86.8053 33.3359 86.541 34.293C86.2858 35.25 85.8255 35.9883 85.1602 36.5078C84.4948 37.0182 83.5423 37.2734 82.3027 37.2734ZM89.7402 37V12.9375H92.5703V37H89.7402ZM101.033 37.2734C99.8301 37.2734 98.8776 37.0091 98.1758 36.4805C97.4831 35.9518 96.9863 35.1543 96.6855 34.0879C96.3939 33.0215 96.248 31.6862 96.248 30.082V19.4727C96.248 18.0872 96.3848 16.8841 96.6582 15.8633C96.9316 14.8424 97.4193 14.0495 98.1211 13.4844C98.8229 12.9193 99.8164 12.6367 101.102 12.6367C102.068 12.6367 102.856 12.8008 103.467 13.1289C104.077 13.4479 104.547 13.9082 104.875 14.5098C105.212 15.1022 105.445 15.8177 105.572 16.6562C105.7 17.4948 105.764 18.4336 105.764 19.4727V30.082C105.764 31.6862 105.618 33.0215 105.326 34.0879C105.044 35.1543 104.556 35.9518 103.863 36.4805C103.18 37.0091 102.236 37.2734 101.033 37.2734ZM101.033 34.8398C101.553 34.8398 101.949 34.694 102.223 34.4023C102.496 34.1016 102.683 33.6048 102.783 32.9121C102.883 32.2194 102.934 31.2852 102.934 30.1094V19.3086C102.934 17.8685 102.82 16.8021 102.592 16.1094C102.364 15.4167 101.867 15.0703 101.102 15.0703C100.309 15.0703 99.7708 15.4167 99.4883 16.1094C99.2148 16.793 99.0781 17.8548 99.0781 19.2949V30.1094C99.0781 31.2943 99.1283 32.2331 99.2285 32.9258C99.3288 33.6094 99.5202 34.1016 99.8027 34.4023C100.085 34.694 100.495 34.8398 101.033 34.8398ZM109.428 37V12.9375H111.561L117.139 29.3164L116.852 22.3574V12.9375H119.354V37H117.275L111.875 20.4844L112.039 26.5547V37H109.428ZM122.006 37L125.656 12.9375H129.061L133.039 37H130.373L129.689 32.4062H125.328L124.699 37H122.006ZM125.643 30.1094H129.334L127.434 17.3945H127.393L125.643 30.1094ZM136.717 37V15.2891H134.064V12.9375H142.008V15.2891H139.533V37H136.717ZM144.318 37V12.9375H151.51V15.2891H147.148V23.5195H151.277V25.8711H147.148V34.6484H151.564V37H144.318Z" fill="white"/>
</svg>
