<svg width="193" height="49" viewBox="0 0 193 49" fill="none" xmlns="http://www.w3.org/2000/svg">
<rect x="0.5" y="0.5" width="192" height="48" rx="19.5" fill="#0C0C0C" stroke="white"/>
<path d="M57.8906 38V10.5H63.4219C64.5156 10.5 65.401 10.6823 66.0781 11.0469C66.7656 11.4115 67.2917 11.9375 67.6562 12.625C68.0208 13.3125 68.2656 14.1406 68.3906 15.1094C68.526 16.0781 68.5938 17.1667 68.5938 18.375V18.7969C68.5938 20.6406 68.4479 22.1875 68.1562 23.4375C67.875 24.6875 67.3594 25.6302 66.6094 26.2656C65.8698 26.8906 64.8073 27.2031 63.4219 27.2031H61.125V38H57.8906ZM61.125 24.5156H63.0938C63.7292 24.5156 64.2083 24.3385 64.5312 23.9844C64.8542 23.6198 65.0729 23.0208 65.1875 22.1875C65.3125 21.3542 65.375 20.224 65.375 18.7969V18.2656C65.375 16.4948 65.2396 15.1875 64.9688 14.3438C64.6979 13.4896 64.099 13.0625 63.1719 13.0625H61.125V24.5156ZM74.625 38V26.4531L69.8438 10.5H73.0469L76.2344 21.6719H76.2969L79.0625 10.5H82.2969L77.8594 26.4531V38H74.625ZM85.9531 38V13.1875H82.9219V10.5H92V13.1875H89.1719V38H85.9531ZM94.6406 38V10.5H97.875V22.2656H102.281V10.5H105.516V38H102.281V24.9062H97.875V38H94.6406ZM115.172 38.3125C113.797 38.3125 112.708 38.0104 111.906 37.4062C111.115 36.8021 110.547 35.8906 110.203 34.6719C109.87 33.4531 109.703 31.9271 109.703 30.0938V17.9688C109.703 16.3854 109.859 15.0104 110.172 13.8438C110.484 12.6771 111.042 11.7708 111.844 11.125C112.646 10.4792 113.781 10.1562 115.25 10.1562C116.354 10.1562 117.255 10.3438 117.953 10.7188C118.651 11.0833 119.188 11.6094 119.562 12.2969C119.948 12.974 120.214 13.7917 120.359 14.75C120.505 15.7083 120.578 16.7812 120.578 17.9688V30.0938C120.578 31.9271 120.411 33.4531 120.078 34.6719C119.755 35.8906 119.198 36.8021 118.406 37.4062C117.625 38.0104 116.547 38.3125 115.172 38.3125ZM115.172 35.5312C115.766 35.5312 116.219 35.3646 116.531 35.0312C116.844 34.6875 117.057 34.1198 117.172 33.3281C117.286 32.5365 117.344 31.4688 117.344 30.125V17.7812C117.344 16.1354 117.214 14.9167 116.953 14.125C116.693 13.3333 116.125 12.9375 115.25 12.9375C114.344 12.9375 113.729 13.3333 113.406 14.125C113.094 14.9062 112.938 16.1198 112.938 17.7656V30.125C112.938 31.4792 112.995 32.5521 113.109 33.3438C113.224 34.125 113.443 34.6875 113.766 35.0312C114.089 35.3646 114.557 35.5312 115.172 35.5312ZM124.766 38V10.5H127.203L133.578 29.2188L133.25 21.2656V10.5H136.109V38H133.734L127.562 19.125L127.75 26.0625V38H124.766Z" fill="white"/>
</svg>
