<svg width="193" height="49" viewBox="0 0 193 49" fill="none" xmlns="http://www.w3.org/2000/svg">
<rect x="0.5" y="0.5" width="192" height="48" rx="19.5" fill="#0C0C0C" stroke="white"/>
<path d="M49.6406 38V10.5H55.4062C56.8646 10.5 57.9427 10.7604 58.6406 11.2812C59.3385 11.7917 59.7917 12.5677 60 13.6094C60.2188 14.6406 60.3281 15.9427 60.3281 17.5156C60.3281 19.2135 60.1562 20.5625 59.8125 21.5625C59.4688 22.5625 58.8021 23.2083 57.8125 23.5C58.3125 23.5833 58.724 23.7969 59.0469 24.1406C59.3802 24.4844 59.6406 25.0208 59.8281 25.75C60.0156 26.4792 60.1458 27.4583 60.2188 28.6875C60.3021 29.9062 60.3438 31.4427 60.3438 33.2969C60.3438 33.474 60.3438 33.7292 60.3438 34.0625C60.3438 34.3958 60.349 34.7604 60.3594 35.1562C60.3698 35.5521 60.3802 35.9427 60.3906 36.3281C60.4115 36.7135 60.4375 37.0573 60.4688 37.3594C60.5 37.651 60.5417 37.8646 60.5938 38H57.375C57.3333 37.9062 57.2969 37.6979 57.2656 37.375C57.2344 37.0521 57.2083 36.625 57.1875 36.0938C57.1667 35.5625 57.151 34.9323 57.1406 34.2031C57.1302 33.4635 57.125 32.6406 57.125 31.7344C57.125 30.8177 57.125 29.8177 57.125 28.7344C57.125 27.6927 57.0781 26.901 56.9844 26.3594C56.901 25.8073 56.6927 25.4271 56.3594 25.2188C56.0365 25 55.5156 24.8698 54.7969 24.8281L52.875 24.7188V38H49.6406ZM52.875 22.3438H54.9375C55.5312 22.3438 55.9844 22.2292 56.2969 22C56.6198 21.7604 56.8385 21.2917 56.9531 20.5938C57.0677 19.8854 57.125 18.8281 57.125 17.4219V17.2344C57.125 16.0677 57.0677 15.1875 56.9531 14.5938C56.849 13.9896 56.6406 13.5833 56.3281 13.375C56.0156 13.1667 55.5417 13.0625 54.9062 13.0625H52.875V22.3438ZM64.3281 38V10.5H72.5469V13.1875H67.5625V22.5938H72.2812V25.2812H67.5625V35.3125H72.6094V38H64.3281ZM74.6719 38L78.8438 10.5H82.7344L87.2812 38H84.2344L83.4531 32.75H78.4688L77.75 38H74.6719ZM78.8281 30.125H83.0469L80.875 15.5938H80.8281L78.8281 30.125ZM95.4219 38.3281C94.0885 38.3281 93.026 38.0052 92.2344 37.3594C91.4427 36.7031 90.875 35.7448 90.5312 34.4844C90.1875 33.224 90.0156 31.6927 90.0156 29.8906V18.4375C90.0156 17.2292 90.0938 16.125 90.25 15.125C90.4062 14.1146 90.6823 13.2448 91.0781 12.5156C91.4844 11.776 92.0469 11.2083 92.7656 10.8125C93.4844 10.4062 94.4062 10.2031 95.5312 10.2031C96.6042 10.2031 97.4792 10.3958 98.1562 10.7812C98.8333 11.1562 99.3594 11.6979 99.7344 12.4062C100.109 13.1042 100.365 13.9375 100.5 14.9062C100.646 15.8646 100.719 16.9271 100.719 18.0938V21.1406H97.5469V18.0781C97.5469 16.3698 97.4219 15.0938 97.1719 14.25C96.9323 13.3958 96.3854 12.9688 95.5312 12.9688C94.625 12.9688 94.0156 13.4062 93.7031 14.2812C93.401 15.1458 93.25 16.4062 93.25 18.0625V29.9688C93.25 31.3021 93.3073 32.3854 93.4219 33.2188C93.5365 34.0417 93.75 34.6406 94.0625 35.0156C94.3854 35.3906 94.8438 35.5781 95.4375 35.5781C96.3021 35.5781 96.8698 35.1406 97.1406 34.2656C97.4115 33.3906 97.5469 31.9531 97.5469 29.9531V26.9062H100.75V29.9219C100.75 31.7552 100.589 33.2969 100.266 34.5469C99.9531 35.7969 99.4115 36.7396 98.6406 37.375C97.8698 38.0104 96.7969 38.3281 95.4219 38.3281ZM105.828 38V13.1875H102.797V10.5H111.875V13.1875H109.047V38H105.828ZM126.422 38.3281C124.682 38.3281 123.406 37.7969 122.594 36.7344C121.792 35.6615 121.391 34.0573 121.391 31.9219V28.3281H124.547V31.7188C124.547 32.4167 124.573 33.0573 124.625 33.6406C124.688 34.224 124.844 34.6927 125.094 35.0469C125.344 35.401 125.755 35.5781 126.328 35.5781C126.901 35.5781 127.307 35.4062 127.547 35.0625C127.797 34.7188 127.948 34.2396 128 33.625C128.062 33 128.094 32.2812 128.094 31.4688V10.5H131.328V31.3438C131.328 33.6562 130.922 35.401 130.109 36.5781C129.297 37.7448 128.068 38.3281 126.422 38.3281ZM140.359 38.3125C139.245 38.3125 138.339 38.1146 137.641 37.7188C136.943 37.3125 136.406 36.7396 136.031 36C135.656 35.2604 135.396 34.3906 135.25 33.3906C135.115 32.3802 135.047 31.2656 135.047 30.0469V27.375H138.188V30.1719C138.188 32.099 138.323 33.4792 138.594 34.3125C138.875 35.1354 139.474 35.5469 140.391 35.5469C141.026 35.5469 141.49 35.401 141.781 35.1094C142.083 34.8073 142.276 34.3281 142.359 33.6719C142.443 33.0156 142.484 32.151 142.484 31.0781C142.484 29.849 142.266 28.7917 141.828 27.9062C141.401 27.0208 140.781 26.1719 139.969 25.3594L138.172 23.5625C137.651 23.0312 137.141 22.4531 136.641 21.8281C136.141 21.1927 135.724 20.474 135.391 19.6719C135.068 18.8698 134.906 17.9531 134.906 16.9219C134.906 15.5365 135.052 14.3385 135.344 13.3281C135.635 12.3177 136.167 11.5365 136.938 10.9844C137.708 10.4323 138.802 10.1562 140.219 10.1562C141.333 10.1562 142.224 10.349 142.891 10.7344C143.568 11.1198 144.073 11.6719 144.406 12.3906C144.75 13.099 144.974 13.9427 145.078 14.9219C145.193 15.901 145.25 16.9844 145.25 18.1719V19.7969H142.156V17.9531C142.156 16.8385 142.109 15.9115 142.016 15.1719C141.932 14.4219 141.755 13.8594 141.484 13.4844C141.214 13.1094 140.792 12.9219 140.219 12.9219C139.698 12.9219 139.271 13.0521 138.938 13.3125C138.615 13.5625 138.38 13.9531 138.234 14.4844C138.089 15.0156 138.016 15.6979 138.016 16.5312C138.016 17.2604 138.104 17.8646 138.281 18.3438C138.458 18.8125 138.724 19.25 139.078 19.6562C139.443 20.0625 139.885 20.5417 140.406 21.0938L142.281 23.0781C143.271 24.1094 144.078 25.2656 144.703 26.5469C145.339 27.8177 145.656 29.2969 145.656 30.9844C145.656 32.5052 145.505 33.8125 145.203 34.9062C144.911 36 144.385 36.8438 143.625 37.4375C142.865 38.0208 141.776 38.3125 140.359 38.3125Z" fill="white"/>
</svg>
