<svg width="197" height="49" viewBox="0 0 197 49" fill="none" xmlns="http://www.w3.org/2000/svg">
<rect x="0.5" y="0.5" width="196" height="48" rx="19.5" fill="#0C0C0C" stroke="white"/>
<path d="M19.7129 37V14.6562H24.207C25.0957 14.6562 25.8151 14.8044 26.3652 15.1006C26.9238 15.3968 27.3512 15.8242 27.6475 16.3828C27.9437 16.9414 28.1426 17.6143 28.2441 18.4014C28.3542 19.1885 28.4092 20.0729 28.4092 21.0547V21.3975C28.4092 22.8955 28.2907 24.1523 28.0537 25.168C27.8252 26.1836 27.4062 26.9495 26.7969 27.4658C26.196 27.9736 25.3327 28.2275 24.207 28.2275H22.3408V37H19.7129ZM22.3408 26.0439H23.9404C24.4567 26.0439 24.846 25.9001 25.1084 25.6123C25.3708 25.3161 25.5485 24.8294 25.6416 24.1523C25.7432 23.4753 25.7939 22.557 25.7939 21.3975V20.9658C25.7939 19.527 25.6839 18.4648 25.4639 17.7793C25.2438 17.0853 24.7572 16.7383 24.0039 16.7383H22.3408V26.0439ZM31.0625 37V14.6562H35.7471C36.932 14.6562 37.8079 14.8678 38.375 15.291C38.9421 15.7057 39.3102 16.3363 39.4795 17.1826C39.6572 18.0205 39.7461 19.0785 39.7461 20.3564C39.7461 21.736 39.6064 22.832 39.3271 23.6445C39.0479 24.457 38.5062 24.9818 37.7021 25.2188C38.1084 25.2865 38.4427 25.46 38.7051 25.7393C38.9759 26.0186 39.1875 26.4544 39.3398 27.0469C39.4922 27.6393 39.598 28.4349 39.6572 29.4336C39.7249 30.4238 39.7588 31.6722 39.7588 33.1787C39.7588 33.3226 39.7588 33.5299 39.7588 33.8008C39.7588 34.0716 39.763 34.3678 39.7715 34.6895C39.7799 35.0111 39.7884 35.3285 39.7969 35.6416C39.8138 35.9548 39.835 36.234 39.8604 36.4795C39.8857 36.7165 39.9196 36.89 39.9619 37H37.3467C37.3128 36.9238 37.2832 36.7546 37.2578 36.4922C37.2324 36.2298 37.2113 35.8828 37.1943 35.4512C37.1774 35.0195 37.1647 34.5075 37.1562 33.915C37.1478 33.3141 37.1436 32.6455 37.1436 31.9092C37.1436 31.1644 37.1436 30.3519 37.1436 29.4717C37.1436 28.6253 37.1055 27.9821 37.0293 27.542C36.9616 27.0934 36.7923 26.7845 36.5215 26.6152C36.2591 26.4375 35.8359 26.3317 35.252 26.2979L33.6904 26.209V37H31.0625ZM33.6904 24.2793H35.3662C35.8486 24.2793 36.2168 24.1862 36.4707 24C36.7331 23.8053 36.9108 23.4245 37.0039 22.8574C37.097 22.2819 37.1436 21.4229 37.1436 20.2803V20.1279C37.1436 19.18 37.097 18.4648 37.0039 17.9824C36.9193 17.4915 36.75 17.1615 36.4961 16.9922C36.2422 16.8229 35.8571 16.7383 35.3408 16.7383H33.6904V24.2793ZM47.1855 37.2539C46.0684 37.2539 45.1839 37.0085 44.5322 36.5176C43.889 36.0267 43.4277 35.2861 43.1484 34.2959C42.8776 33.3057 42.7422 32.0658 42.7422 30.5762V20.7246C42.7422 19.4382 42.8691 18.321 43.123 17.373C43.377 16.4251 43.8298 15.6888 44.4814 15.1641C45.1331 14.6393 46.0557 14.377 47.249 14.377C48.1462 14.377 48.8783 14.5293 49.4453 14.834C50.0124 15.1302 50.4482 15.5576 50.7529 16.1162C51.0661 16.6663 51.2819 17.3307 51.4004 18.1094C51.5189 18.888 51.5781 19.7598 51.5781 20.7246V30.5762C51.5781 32.0658 51.4427 33.3057 51.1719 34.2959C50.9095 35.2861 50.4567 36.0267 49.8135 36.5176C49.1787 37.0085 48.3027 37.2539 47.1855 37.2539ZM47.1855 34.9941C47.668 34.9941 48.0361 34.8587 48.29 34.5879C48.5439 34.3086 48.7174 33.8473 48.8105 33.2041C48.9036 32.5609 48.9502 31.6934 48.9502 30.6016V20.5723C48.9502 19.235 48.8444 18.2448 48.6328 17.6016C48.4212 16.9583 47.96 16.6367 47.249 16.6367C46.5127 16.6367 46.0133 16.9583 45.751 17.6016C45.4971 18.2363 45.3701 19.2223 45.3701 20.5596V30.6016C45.3701 31.7018 45.4167 32.5736 45.5098 33.2168C45.6029 33.8516 45.7806 34.3086 46.043 34.5879C46.3053 34.8587 46.6862 34.9941 47.1855 34.9941ZM54.9805 37V14.6562H59.0176C60.1602 14.6562 61.0446 14.8255 61.6709 15.1641C62.2972 15.5026 62.7373 16.04 62.9912 16.7764C63.2451 17.5127 63.3763 18.4818 63.3848 19.6836V20.166C63.3848 21.4102 63.2663 22.4258 63.0293 23.2129C62.8008 23.9915 62.3564 24.5544 61.6963 24.9014C62.2295 25.113 62.6442 25.4811 62.9404 26.0059C63.2367 26.5306 63.444 27.1611 63.5625 27.8975C63.6895 28.6338 63.7529 29.4251 63.7529 30.2715V30.7412C63.736 32.1969 63.5879 33.3861 63.3086 34.3086C63.0378 35.2311 62.585 35.9124 61.9502 36.3525C61.3154 36.7842 60.4479 37 59.3477 37H54.9805ZM57.6084 34.8799H59.2207C59.7201 34.8799 60.1051 34.7572 60.376 34.5117C60.6468 34.2663 60.8372 33.8389 60.9473 33.2295C61.0573 32.6117 61.1123 31.7568 61.1123 30.665V29.8906C61.1123 28.5111 61.0023 27.5208 60.7822 26.9199C60.5622 26.3105 60.0882 26.0059 59.3604 26.0059H57.6084V34.8799ZM57.6084 23.9873H59.0938C59.4492 23.9873 59.737 23.9492 59.957 23.873C60.1771 23.7884 60.3464 23.6234 60.4648 23.3779C60.5918 23.1325 60.6764 22.7686 60.7188 22.2861C60.7611 21.8037 60.7822 21.1562 60.7822 20.3438V19.7217C60.7822 18.8753 60.7188 18.2448 60.5918 17.8301C60.4648 17.4154 60.2617 17.1403 59.9824 17.0049C59.7116 16.8695 59.3519 16.8018 58.9033 16.8018H57.6084V23.9873ZM66.6348 37V14.6562H69.2627V34.8291H73.3887V37H66.6348ZM75.4707 37V14.6562H82.1484V16.8398H78.0986V24.4824H81.9326V26.666H78.0986V34.8164H82.1992V37H75.4707ZM85.0684 37V14.6562H88.0898L91.543 32.5186L94.8311 14.6562H97.8652V37H95.6182V28.5449L95.834 20.1914L92.4697 37H90.5908L87.0869 20.1914L87.3027 28.5449V37H85.0684ZM111.398 37.2539C110.493 37.2539 109.757 37.0931 109.189 36.7715C108.622 36.4414 108.187 35.9759 107.882 35.375C107.577 34.7741 107.366 34.0674 107.247 33.2549C107.137 32.4339 107.082 31.5283 107.082 30.5381V28.3672H109.634V30.6396C109.634 32.2054 109.744 33.3268 109.964 34.0039C110.192 34.6725 110.679 35.0068 111.424 35.0068C111.94 35.0068 112.317 34.8883 112.554 34.6514C112.799 34.4059 112.956 34.0166 113.023 33.4834C113.091 32.9502 113.125 32.2477 113.125 31.376C113.125 30.3773 112.947 29.5182 112.592 28.7988C112.245 28.0794 111.741 27.3896 111.081 26.7295L109.621 25.2695C109.198 24.8379 108.783 24.3682 108.377 23.8604C107.971 23.3441 107.632 22.7601 107.361 22.1084C107.099 21.4567 106.968 20.7119 106.968 19.874C106.968 18.7484 107.086 17.7751 107.323 16.9541C107.56 16.1331 107.992 15.4984 108.618 15.0498C109.244 14.6012 110.133 14.377 111.284 14.377C112.19 14.377 112.913 14.5335 113.455 14.8467C114.005 15.1598 114.416 15.6084 114.687 16.1924C114.966 16.7679 115.148 17.4535 115.232 18.249C115.326 19.0446 115.372 19.9248 115.372 20.8896V22.21H112.858V20.7119C112.858 19.8063 112.82 19.0531 112.744 18.4521C112.676 17.8428 112.533 17.3857 112.312 17.0811C112.092 16.7764 111.75 16.624 111.284 16.624C110.861 16.624 110.514 16.7298 110.243 16.9414C109.981 17.1445 109.79 17.4619 109.672 17.8936C109.553 18.3252 109.494 18.8796 109.494 19.5566C109.494 20.1491 109.566 20.64 109.71 21.0293C109.854 21.4102 110.07 21.7656 110.357 22.0957C110.654 22.4258 111.013 22.8151 111.437 23.2637L112.96 24.876C113.764 25.7139 114.42 26.6533 114.928 27.6943C115.444 28.7269 115.702 29.9287 115.702 31.2998C115.702 32.5355 115.579 33.5977 115.334 34.4863C115.097 35.375 114.67 36.0605 114.052 36.543C113.434 37.0169 112.549 37.2539 111.398 37.2539ZM122.494 37.2539C121.377 37.2539 120.493 37.0085 119.841 36.5176C119.198 36.0267 118.736 35.2861 118.457 34.2959C118.186 33.3057 118.051 32.0658 118.051 30.5762V20.7246C118.051 19.4382 118.178 18.321 118.432 17.373C118.686 16.4251 119.138 15.6888 119.79 15.1641C120.442 14.6393 121.364 14.377 122.558 14.377C123.455 14.377 124.187 14.5293 124.754 14.834C125.321 15.1302 125.757 15.5576 126.062 16.1162C126.375 16.6663 126.59 17.3307 126.709 18.1094C126.827 18.888 126.887 19.7598 126.887 20.7246V30.5762C126.887 32.0658 126.751 33.3057 126.48 34.2959C126.218 35.2861 125.765 36.0267 125.122 36.5176C124.487 37.0085 123.611 37.2539 122.494 37.2539ZM122.494 34.9941C122.977 34.9941 123.345 34.8587 123.599 34.5879C123.853 34.3086 124.026 33.8473 124.119 33.2041C124.212 32.5609 124.259 31.6934 124.259 30.6016V20.5723C124.259 19.235 124.153 18.2448 123.941 17.6016C123.73 16.9583 123.269 16.6367 122.558 16.6367C121.821 16.6367 121.322 16.9583 121.06 17.6016C120.806 18.2363 120.679 19.2223 120.679 20.5596V30.6016C120.679 31.7018 120.725 32.5736 120.818 33.2168C120.911 33.8516 121.089 34.3086 121.352 34.5879C121.614 34.8587 121.995 34.9941 122.494 34.9941ZM130.289 37V14.6562H132.917V34.8291H137.043V37H130.289ZM141.029 37L137.31 14.6562H139.811L141.296 24.1143L142.565 32.4297H142.616L143.721 24.1143L145.003 14.6562H147.479L144.089 37H141.029ZM149.84 37V14.6562H152.468V37H149.84ZM156.137 37V14.6562H158.117L163.297 29.8652L163.03 23.4033V14.6562H165.354V37H163.424L158.409 21.6641L158.562 27.3008V37H156.137ZM172.78 37.2158C171.485 37.2158 170.491 36.6826 169.797 35.6162C169.103 34.5498 168.756 32.7936 168.756 30.3477V20.9785C168.756 19.9967 168.824 19.1081 168.959 18.3125C169.103 17.5085 169.344 16.8145 169.683 16.2305C170.021 15.6465 170.482 15.1979 171.066 14.8848C171.659 14.5716 172.404 14.415 173.301 14.415C174.232 14.415 174.972 14.5758 175.522 14.8975C176.081 15.2106 176.504 15.6592 176.792 16.2432C177.08 16.8271 177.27 17.5254 177.363 18.3379C177.456 19.1504 177.503 20.0475 177.503 21.0293V22.7559H174.964V19.8486C174.964 18.7653 174.854 17.9655 174.634 17.4492C174.422 16.9245 173.978 16.6621 173.301 16.6621C172.581 16.6621 172.082 16.971 171.803 17.5889C171.523 18.2067 171.384 19.2985 171.384 20.8643V30.2588C171.384 31.9684 171.498 33.1914 171.727 33.9277C171.964 34.6641 172.463 35.0322 173.225 35.0322C173.952 35.0322 174.443 34.6641 174.697 33.9277C174.96 33.1829 175.091 31.943 175.091 30.208V27.3008H173.275V25.2695H177.503V37H176.119L175.764 35.2734C175.527 35.8997 175.15 36.3822 174.634 36.7207C174.126 37.0508 173.508 37.2158 172.78 37.2158Z" fill="white"/>
</svg>
